{"title":"Beverly Hills Chihuahua 2 2011 BDRip XVID AC3 HQ Hive-CM8","uid":6156920,"size":1673688864,"categoryP":"video","categoryS":"movies","magnet":"?xt=urn:btih:e08be896d3820eb35f3d1fa8941691fda0186503&amp;dn=Beverly+Hills+Chihuahua+2+2011+BDRip+XVID+AC3+HQ+Hive-CM8&amp;tr=udp%3A%2F%2Ftracker.openbittorrent.com%3A80&amp;tr=udp%3A%2F%2Fopen.demonii.com%3A1337&amp;tr=udp%3A%2F%2Ftracker.coppersurfer.tk%3A6969&amp;tr=udp%3A%2F%2Fexodus.desync.com%3A6969","seeders":3,"leechers":1,"uploader":"TheCloon","files":-1,"time":1297072202,"description":"Beverly Hills Chihuahua 2 2011 BDRip XVID AC3 HQ Hive-CM8\n\n\n\n[b]Thx Hive\n\nCM8 Doing It Right The First Time :D\n\nWhy download a touched up rip of a rip BRrip\nGet the real deal BDRip\nEnjoy\n\nSource US Bluray\n\nVideo: 720x400 @bitrate 2200 2pass\nAudio: DTS to AC3 5.1 @448\nSample: yes included[/b]\n &lt;a href=&quot;\nhttp://www.imdb.com/title/tt1482393/&quot; rel=&quot;nofollow&quot; target=&quot;_NEW&quot;&gt;\nhttp://www.imdb.com/title/tt1482393/&lt;/a&gt;\n\n\nGeneral\nComplete name                    : Beverly.Hills.Chihuahua.2.2011.BDRip.XVID.AC3.HQ.Hive-CM8.avi\nFormat                           : AVI\nFormat/Info                      : Audio Video Interleave\nFile size                        : 1.55 GiB\nDuration                         : 1h 23mn\nOverall bit rate                 : 2 657 Kbps\nWriting application              : Nandub v1.0rc2\nWriting library                  : Nandub build 1853/release\n\nVideo\nID                               : 0\nFormat                           : MPEG-4 Visual\nFormat profile                   : Advanced Simple@L5\nFormat settings, BVOP            : Yes\nFormat settings, QPel            : Yes\nFormat settings, GMC             : No warppoints\nFormat settings, Matrix          : Default (H.263)\nMuxing mode                      : Packed bitstream\nCodec ID                         : XVID\nCodec ID/Hint                    : XviD\nDuration                         : 1h 23mn\nBit rate                         : 2 199 Kbps\nWidth                            : 720 pixels\nHeight                           : 400 pixels\nDisplay aspect ratio             : 16:9\nFrame rate                       : 23.976 fps\nColor space                      : YUV\nChroma subsampling               : 4:2:0\nBit depth                        : 8 bits\nScan type                        : Progressive\nBits/(Pixel*Frame)               : 0.319\nStream size                      : 1.29 GiB (83%)\nWriting library                  : XviD 1.2.1 (UTC 2008-12-04)\n\nAudio\nID                               : 1\nFormat                           : AC-3\nFormat/Info                      : Audio Coding 3\nMode extension                   : CM (complete main)\nCodec ID                         : 2000\nDuration                         : 1h 23mn\nBit rate mode                    : Constant\nBit rate                         : 448 Kbps\nChannel(s)                       : 6 channels\nChannel positions                : Front: L C R, Side: L R, LFE\nSampling rate                    : 48.0 KHz\nBit depth                        : 16 bits\nStream size                      : 268 MiB (17%)\nAlignment                        : Split accross interleaves\nInterleave, duration             : 42 ms (1.00 video frame)\nInterleave, preload duration     : 500 ms\n\n\n\n\nChristine Lakin   ...News Reporter\nOdette Yustman  ... Chloe (voice)\nEmily Osment  \t... Pep (voice)\nBridgit Mendler  ...Appoline\nMadison Pettis \t ... Lala (voice)\nElaine Hendrix \t ... Colleen Mansfield - Appoline's Owner\nOlivia Newton-John  \t\t\nErnie Hudson  \t... Pedro (voice)\nGeorge Lopez  \t... Papi (voice) \n\n\n\nThe family just got bigger.\n","torrent":{"xt":"urn:btih:e08be896d3820eb35f3d1fa8941691fda0186503","amp;dn":"Beverly+Hills+Chihuahua+2+2011+BDRip+XVID+AC3+HQ+Hive-CM8","amp;tr":["udp%3A%2F%2Ftracker.openbittorrent.com%3A80","udp%3A%2F%2Fopen.demonii.com%3A1337","udp%3A%2F%2Ftracker.coppersurfer.tk%3A6969","udp%3A%2F%2Fexodus.desync.com%3A6969"],"infoHash":"e08be896d3820eb35f3d1fa8941691fda0186503","infoHashBuffer":{"type":"Buffer","data":[224,139,232,150,211,130,14,179,95,61,31,168,148,22,145,253,160,24,101,3]},"announce":[],"urlList":[]}}